# AST/ASF file generated using VICON BodyLanguage
# -----------------------------------------------
:version 1.10
:name VICON
:units
  mass 1.0
  length 0.45
  angle deg
:documentation
   .ast/.asf automatically generated from VICON data using
   VICON BodyBuilder and BodyLanguage model FoxedUp or BRILLIANT.MOD
:root
   order TX TY TZ RX RY RZ
   axis XYZ
   position 0 0 0  
   orientation 0 0 0 
:bonedata
  begin
     id 1 
     name lhipjoint
     direction 0.660183 -0.676772 0.325788 
     length 2.75133 
     axis 0 0 0  XYZ
  end
  begin
     id 2 
     name lfemur
     direction 0.34202 -0.939693 0  
     length 7.70317  
     axis 0 0 20  XYZ
    dof rx ry rz
    limits (-160.0 20.0)
           (-70.0 70.0)
           (-60.0 70.0)
  end
  begin
     id 3 
     name ltibia
     direction 0.342105 -0.939662 0   
     length 7.18701   
     axis 0 0 20   XYZ
    dof rx
    limits (-10.0 170.0)
  end
  begin
     id 4 
     name lfoot
     direction 0.14163 -0.389126 0.910232   
     length 2.41719   
     axis -90 7.62852e-016 20   XYZ
    dof rx rz
    limits (-45.0 90.0)
           (-70.0 20.0)
  end
  begin
     id 5 
     name ltoes
     direction 1.53533e-011 -4.21926e-011 1   
     length 1.18611   
     axis -90 7.62852e-016 20   XYZ
    dof rx
    limits (-90.0 20.0)
  end
  begin
     id 6 
     name rhipjoint
     direction -0.6658 -0.67229 0.323631   
     length 2.76968  
     axis 0 0 0  XYZ 
  end
  begin
     id 7 
     name rfemur
     direction -0.34202 -0.939693 0   
     length 7.92547   
     axis 0 0 -20   XYZ
    dof rx ry rz
    limits (-160.0 20.0)
           (-70.0 70.0)
           (-70.0 60.0)
  end
  begin
     id 8 
     name rtibia
     direction -0.342022 -0.939692 0   
     length 7.22641   
     axis 0 0 -20   XYZ
    dof rx
    limits (-10.0 170.0)
 end
 begin
     id 9 
     name rfoot
     direction -0.105675 -0.29034 0.951071   
     length 2.48149  
     axis -90 -7.62852e-016 -20   XYZ
    dof rx rz
    limits (-45.0 90.0)
           (-20.0 70.0)
  end
  begin
     id 10 
     name rtoes
     direction -1.5349e-011 -4.21859e-011 1   
     length 1.23343   
     axis -90 -7.62852e-016 -20   XYZ
    dof rx
    limits (-90.0 20.0)
  end
  begin
     id 11 
     name lowerback
     direction 0.0104173 0.993624 -0.112266   
     length 2.00527   
     axis 0 0 0   XYZ
    dof rx ry rz
    limits (-20.0 45.0)
           (-30.0 30.0)
           (-30.0 30.0)
  end
  begin
     id 12 
     name upperback
     direction 0.00733149 0.999856 -0.0152913   
     length 2.01385   
     axis 0 0 0   XYZ
    dof rx ry rz
    limits (-20.0 45.0)
           (-30.0 30.0)
           (-30.0 30.0)
  end
  begin
     id 13 
     name thorax
     direction 0.0026304 0.999318 0.036841   
     length 2.03734   
     axis 0 0 0   XYZ
    dof rx ry rz
    limits (-20.0 45.0)
           (-30.0 30.0)
           (-30.0 30.0)
  end
  begin
     id 14 
     name lowerneck
     direction 0.0293154 0.998757 0.0403082   
     length 1.65303   
     axis 0 0 0   XYZ
    dof rx ry rz
    limits (-20.0 45.0)
           (-30.0 30.0)
           (-30.0 30.0)
  end
  begin
     id 15 
     name upperneck
     direction -0.0376619 0.998184 -0.0470083   
     length 1.60926   
     axis 0 0 0   XYZ
    dof rx ry rz
    limits (-20.0 45.0)
           (-30.0 30.0)
           (-30.0 30.0)
  end
  begin
     id 16
     name head
     direction -0.0170133 0.999635 -0.0209778  
     length 1.73625  
     axis 0 0 0   XYZ
    dof rx ry rz
    limits (-20.0 45.0)
           (-30.0 30.0)
           (-30.0 30.0)
  end
  begin
     id 17 
     name lclavicle
     direction 0.919857 0.39181 -0.0186333  
     length 3.75313  
     axis 0 0 0   XYZ
    dof ry rz
    limits (-20.0 10.0)
           (0.0 20.0)
  end
  begin
     id 18 
     name lhumerus
     direction 1 -4.48988e-011 1.44029e-027   
     length 5.49313   
     axis 180 -30 -90   XYZ
    dof rx ry rz
    limits (-60.0 90.0)
           (-90.0 90.0)
           (-90.0 90.0)
  end
  begin
     id 19
     name lradius
     direction 1 -4.48924e-011 7.46281e-027   
     length 3.29037   
     axis 180 -30 -90   XYZ
    dof rx
    limits (-10.0 170.0)
  end
  begin
     id 20
     name lwrist
     direction 1 -4.48955e-011 2.19879e-026   
     length 1.64519   
     axis -1.34358e-014 90 90   XYZ
    dof ry
    limits (-180.0 0.0)
 end
  begin
     id 21 
     name lhand
     direction 1 -4.48978e-011 4.39747e-026   
     length 0.729656   
     axis -2.80598e-014 90 90   XYZ
    dof rx rz
    limits (-90.0 90.0)
           (-45.0 45.0)
  end
  begin
     id 22 
     name lfingers
     direction 1 -4.49071e-011 8.79411e-026   
     length 0.588268   
     axis -5.61193e-014 90 90   XYZ
    dof rx
    limits (0.0 90.0)
  end
  begin
     id 23
     name lthumb
     direction 0.707107 -6.34817e-011 0.707107   
     length 0.844638   
     axis -90 45 -9.86923e-015   XYZ
    dof rx rz
    limits (-45.0 45.0)
           (-45.0 45.0)
  end
  begin
     id 24 
     name rclavicle
     direction -0.919898 0.388279 0.0550233   
     length 3.7171  
     axis 0 0 0   XYZ 
    dof ry rz
    limits (-10.0 20.0)
           (-20.0 0.0)
  end
  begin
     id 25 
     name rhumerus
     direction -1 -4.48968e-011 9.98372e-028  
     length 5.23684   
     axis 180 30 90   XYZ
    dof rx ry rz
    limits (-90.0 60.0)
           (-90.0 90.0)
           (-90.0 90.0)
  end
  begin
     id 26 
     name rradius
     direction -1 -4.48956e-011 1.01023e-026   
     length 3.38251   
     axis 180 30 90   XYZ
    dof rx
    limits (-10.0 170.0)
  end
  begin
     id 27 
     name rwrist
     direction -1 -4.4892e-011 2.19886e-026   
     length 1.69126   
     axis -1.34358e-014 -90 -90   XYZ
    dof ry
    limits (-180.0 0.0)
  end
  begin
     id 28
     name rhand
     direction -1 -4.49024e-011 4.39727e-026   
     length 0.691454   
     axis -2.80598e-014 -90 -90   XYZ
    dof rx rz
    limits (-90.0 90.0)
           (-45.0 45.0)
  end
  begin
     id 29
     name rfingers
     direction -1 -4.49097e-011 8.79388e-026   
     length 0.557468   
     axis -5.61193e-014 -90 -90   XYZ
    dof rx
    limits (0.0 90.0)
  end
  begin
     id 30
     name rthumb
     direction -0.707107 -6.34938e-011 0.707107   
     length 0.800416   
     axis -90 -45 9.86923e-015   XYZ
    dof rx rz
    limits (-45.0 45.0)
           (-45.0 45.0)
  end
:hierarchy
  begin
    root lhipjoint rhipjoint lowerback
    lhipjoint lfemur
    lfemur ltibia
    ltibia lfoot
    lfoot ltoes
    rhipjoint rfemur
    rfemur rtibia
    rtibia rfoot
    rfoot rtoes
    lowerback upperback
    upperback thorax
    thorax lowerneck lclavicle rclavicle
    lowerneck upperneck
    upperneck head
    lclavicle lhumerus
    lhumerus lradius
    lradius lwrist
    lwrist lhand lthumb
    lhand lfingers
    rclavicle rhumerus
    rhumerus rradius
    rradius rwrist
    rwrist rhand rthumb
    rhand rfingers
  end

#!OML:ASF H:\BabyWalks\Project 1\Capture day 1\Session 1\baby.ASF
:FULLY-SPECIFIED
:DEGREES
32
root -39.5915 17.3529 -2.81973 -25.139 77.7403 -29.3162
lowerback 16.4537 -1.51096 1.43798
upperback 6.82598 -1.28996 3.20645
thorax -1.91237 -0.509037 2.78206
lowerneck -0.550402 4.09973 2.23457
upperneck -15.7964 5.1841 -6.23759
head -4.39687 2.924 -2.48168
rclavicle 9.34288e-015 7.20594e-015
rhumerus -39.4898 9.96162 -80.0983
rradius 44.655
rwrist -1.66081
rhand -9.45815 -15.6945
rfingers 7.12502
rthumb 16.5054 -45.0125
lclavicle 9.34288e-015 7.20594e-015
lhumerus -44.4517 0.859104 83.1116
lradius 52.1833
lwrist 2.34627
lhand -0.209713 9.91156
lfingers 7.12502
lthumb 25.3895 38.241
rfemur 1.36786 12.0923 26.6878
rtibia 19.3122
rfoot -22.0046 -10.4732
rtoes -10.3506
lfemur -24.7388 -4.48264 -8.68201
ltibia 41.3979
lfoot -16.5746 -15.6923
ltoes 11.1824
33
root -39.5495 17.3451 -2.83546 -25.5161 77.7415 -29.7288
lowerback 16.4615 -1.47577 1.36569
upperback 6.80028 -1.25876 3.145
thorax -1.94493 -0.494938 2.75309
lowerneck -0.530614 4.04582 2.19582
upperneck -15.8804 5.1246 -6.11521
head -4.43346 2.89197 -2.43887
rclavicle 1.79718e-014 -7.46933e-014
rhumerus -39.6628 9.50772 -80.0617
rradius 44.1267
rwrist -1.94795
rhand -9.4444 -15.8819
rfingers 7.12502
rthumb 16.5186 -45.1987
lclavicle 1.79718e-014 -7.46933e-014
lhumerus -44.5246 0.936041 82.966
lradius 52.0765
lwrist 2.30398
lhand -0.145744 9.87873
lfingers 7.12502
lthumb 25.4508 38.1995
rfemur 1.57845 12.1092 26.7237
rtibia 19.1289
rfoot -21.9147 -10.6023
rtoes -10.9088
lfemur -24.7522 -4.49461 -8.68845
ltibia 41.6481
lfoot -16.8953 -15.7437
ltoes 11.1356
34
root -39.5059 17.3366 -2.85131 -25.9078 77.7561 -30.1498
lowerback 16.4777 -1.44159 1.28242
upperback 6.77356 -1.23022 3.08235
thorax -1.98261 -0.482251 2.72975
lowerneck -0.514239 3.99196 2.135
upperneck -15.9649 5.06825 -5.96431
head -4.47101 2.86111 -2.38365
rclavicle 3.15571e-015 9.34288e-015
rhumerus -39.8689 9.07804 -80.0278
rradius 43.6223
rwrist -2.09287
rhand -9.39833 -16.0515
rfingers 7.12502
rthumb 16.563 -45.3647
lclavicle 3.15571e-015 9.34288e-015
lhumerus -44.598 1.01505 82.8226
lradius 51.983
lwrist 2.26405
lhand -0.0855689 9.8576
lfingers 7.12502
lthumb 25.5084 38.1701
rfemur 1.80094 12.1214 26.7574
rtibia 18.9512
rfoot -21.8235 -10.7482
rtoes -11.5085
lfemur -24.759 -4.51926 -8.70273
ltibia 41.9035
lfoot -17.2231 -15.8012
ltoes 11.2839
35
root -39.461 17.3275 -2.86735 -26.3193 77.7766 -30.5902
lowerback 16.4907 -1.40564 1.19078
upperback 6.7488 -1.20067 3.02163
thorax -2.01633 -0.469149 2.71291
lowerneck -0.519138 3.93179 2.08028
upperneck -16.0356 5.00412 -5.81215
head -4.50082 2.8256 -2.32783
rclavicle -1.08835e-014 4.87022e-015
rhumerus -40.1031 8.6839 -79.9958
rradius 43.1426
rwrist -2.08634
rhand -9.33015 -16.1774
rfingers 7.12502
rthumb 16.6286 -45.485
lclavicle -1.08835e-014 4.87022e-015
lhumerus -44.6676 1.09332 82.685
lradius 51.906
lwrist 2.23209
lhand -0.0273504 9.8611
lfingers 7.12502
lthumb 25.5642 38.1656
rfemur 2.02697 12.136 26.7937
rtibia 18.7825
rfoot -21.731 -10.9098
rtoes -12.1466
lfemur -24.7674 -4.55147 -8.71826
ltibia 42.1662
lfoot -17.5547 -15.8653
ltoes 11.6132
36
root -39.4149 17.3178 -2.88376 -26.717 77.8037 -31.0164
lowerback 16.5083 -1.3685 1.08894
upperback 6.72145 -1.17119 2.95809
thorax -2.05506 -0.456201 2.69903
lowerneck -0.50655 3.87398 1.99706
upperneck -16.1274 4.94708 -5.62357
head -4.54152 2.79366 -2.25726
rclavicle -2.69353e-014 3.08116e-015
rhumerus -40.3694 8.33661 -79.9758
rradius 42.6835
rwrist -1.94177
rhand -9.26757 -16.2392
rfingers 7.12502
rthumb 16.6889 -45.5418
lclavicle -2.69353e-014 3.08116e-015
lhumerus -44.7394 1.16994 82.5482
lradius 51.844
lwrist 2.20987
lhand 0.0297599 9.86395
lfingers 7.12502
lthumb 25.6189 38.1606
rfemur 2.25282 12.1523 26.823
rtibia 18.6246
rfoot -21.6357 -11.0823
rtoes -12.8355
lfemur -24.7787 -4.59541 -8.7429
ltibia 42.437
lfoot -17.9237 -15.9238
ltoes 11.9232
37
root -39.3678 17.3074 -2.90042 -27.11 77.8319 -31.4387
lowerback 16.523 -1.3292 0.97918
upperback 6.6956 -1.14038 2.89266
thorax -2.09058 -0.442651 2.6873
lowerneck -0.508183 3.81153 1.92234
upperneck -16.2107 4.88492 -5.43184
head -4.57714 2.75827 -2.1863
rclavicle -2.51463e-014 5.1684e-015
rhumerus -40.6596 8.04554 -79.9748
rradius 42.2462
rwrist -1.67324
rhand -9.21958 -16.2533
rfingers 7.12502
rthumb 16.7351 -45.552
lclavicle -2.51463e-014 5.1684e-015
lhumerus -44.8112 1.24486 82.4115
lradius 51.8045
lwrist 2.20484
lhand 0.0867481 9.8845
lfingers 7.12502
lthumb 25.6735 38.1733
rfemur 2.47528 12.1719 26.8502
rtibia 18.4819
rfoot -21.5418 -11.2646
rtoes -13.5485
lfemur -24.7934 -4.64792 -8.77082
ltibia 42.7172
lfoot -18.2824 -15.9843
ltoes 12.2501
38
root -39.3196 17.2965 -2.91727 -27.4991 77.8599 -31.8558
lowerback 16.5345 -1.28689 0.862415
upperback 6.67339 -1.10697 2.82379
thorax -2.1207 -0.427817 2.6753
lowerneck -0.48126 3.75251 1.81752
upperneck -16.3294 4.83247 -5.19646
head -4.63 2.72772 -2.09875
rclavicle -2.73329e-014 -3.57812e-015
rhumerus -40.9703 7.81491 -80.0007
rradius 41.8314
rwrist -1.29527
rhand -9.1948 -16.2408
rfingers 7.12502
rthumb 16.7589 -45.5375
lclavicle -2.73329e-014 -3.57812e-015
lhumerus -44.881 1.31433 82.2713
lradius 51.7817
lwrist 2.21347
lhand 0.139545 9.88545
lfingers 7.12502
lthumb 25.724 38.1669
rfemur 2.69399 12.1939 26.8763
rtibia 18.3588
rfoot -21.4466 -11.4547
rtoes -14.309
lfemur -24.8081 -4.70839 -8.80113
ltibia 43.0063
lfoot -18.6464 -16.043
ltoes 12.4641
39
root -39.2706 17.2849 -2.93449 -27.8748 77.8812 -32.2628
lowerback 16.5363 -1.23934 0.741127
upperback 6.6551 -1.06785 2.75239
thorax -2.14169 -0.410186 2.6619
lowerneck -0.466171 3.69084 1.72925
upperneck -16.4398 4.77739 -4.96355
head -4.67768 2.6948 -2.01394
rclavicle -3.8266e-014 3.1408e-014
rhumerus -41.2924 7.63915 -80.05
rradius 41.4289
rwrist -0.826491
rhand -9.17963 -16.1787
rfingers 7.12502
rthumb 16.7735 -45.4741
lclavicle -3.8266e-014 3.1408e-014
lhumerus -44.9485 1.37644 82.1307
lradius 51.7793
lwrist 2.2395
lhand 0.187064 9.88549
lfingers 7.12502
lthumb 25.7695 38.1604
rfemur 2.90223 12.2165 26.8999
rtibia 18.2529
rfoot -21.3505 -11.6424
rtoes -15.0968
lfemur -24.828 -4.7735 -8.8309
ltibia 43.3069
lfoot -19.0141 -16.0975
ltoes 12.5448
40
root -39.2208 17.2728 -2.95178 -28.2368 77.901 -32.6564
lowerback 16.5293 -1.18792 0.61072
upperback 6.64301 -1.02541 2.6767
thorax -2.15164 -0.39096 2.64827
lowerneck -0.432175 3.6329 1.62545
upperneck -16.5755 4.73183 -4.6989
head -4.73718 2.66612 -1.91804
rclavicle -1.76918e-014 -3.37934e-015
rhumerus -41.6248 7.52866 -80.1347
rradius 41.0512
rwrist -0.290557
rhand -9.16382 -16.1166
rfingers 7.12502
rthumb 16.7887 -45.4107
lclavicle -1.76918e-014 -3.37934e-015
lhumerus -45.0117 1.42888 81.9866
lradius 51.7992
lwrist 2.28249
lhand 0.229198 9.87458
lfingers 7.12502
lthumb 25.8099 38.1436
rfemur 3.10485 12.2396 26.9209
rtibia 18.1641
rfoot -21.2563 -11.8341
rtoes -15.906
lfemur -24.8499 -4.84749 -8.86245
ltibia 43.6187
lfoot -19.4103 -16.1437
ltoes 12.4276
41
root -39.1703 17.2591 -2.96909 -28.5838 77.9214 -33.0349
lowerback 16.5176 -1.13378 0.472133
upperback 6.63301 -0.981023 2.59507
thorax -2.157 -0.370828 2.63257
lowerneck -0.383394 3.57935 1.50682
upperneck -16.7247 4.69724 -4.39948
head -4.80417 2.64182 -1.80985
rclavicle 5.19822e-014 -5.30755e-014
rhumerus -41.9665 7.46933 -80.2521
rradius 40.6899
rwrist 0.292557
rhand -9.13325 -16.0283
rfingers 7.12502
rthumb 16.8182 -45.32
lclavicle 5.19822e-014 -5.30755e-014
lhumerus -45.0774 1.47098 81.837
lradius 51.8428
lwrist 2.33863
lhand 0.267824 9.86946
lfingers 7.12502
lthumb 25.8469 38.1331
rfemur 3.31026 12.2585 26.9404
rtibia 18.0952
rfoot -21.1713 -12.0404
rtoes -16.7612
lfemur -24.8747 -4.93038 -8.89635
ltibia 43.943
lfoot -19.8261 -16.1868
ltoes 12.1072
42
root -39.1189 17.2442 -2.98652 -28.8954 77.9399 -33.3779
lowerback 16.4932 -1.0757 0.322524
upperback 6.62933 -0.933583 2.50778
thorax -2.14898 -0.349312 2.6163
lowerneck -0.361294 3.52211 1.41499
upperneck -16.8503 4.65878 -4.106
head -4.85851 2.61376 -1.7064
rclavicle 2.48481e-014 -2.38542e-015
rhumerus -42.3095 7.46367 -80.4013
rradius 40.3438
rwrist 0.904527
rhand -9.08134 -15.9308
rfingers 7.12502
rthumb 16.8681 -45.2182
lclavicle 2.48481e-014 -2.38542e-015
lhumerus -45.14 1.50089 81.686
lradius 51.9089
lwrist 2.40903
lhand 0.300309 9.86484
lfingers 7.12502
lthumb 25.878 38.1239
rfemur 3.51385 12.2625 26.9504
rtibia 18.0449
rfoot -21.0937 -12.2445
rtoes -17.6551
lfemur -24.8991 -5.01972 -8.93623
ltibia 44.2765
lfoot -20.2646 -16.2284
ltoes 11.7935
43
root -39.067 17.2284 -3.00403 -29.1466 77.9535 -33.6679
lowerback 16.4575 -1.01286 0.158555
upperback 6.62456 -0.882629 2.41507
thorax -2.13631 -0.326342 2.6017
lowerneck -0.371441 3.46204 1.35497
upperneck -16.94 4.61665 -3.82425
head -4.89513 2.58193 -1.60998
rclavicle 2.46493e-014 -3.02153e-014
rhumerus -42.657 7.50727 -80.5806
rradius 40.0141
rwrist 1.52664
rhand -8.99489 -15.8096
rfingers 7.12502
rthumb 16.9514 -45.0899
lclavicle 2.46493e-014 -3.02153e-014
lhumerus -45.205 1.51764 81.5344
lradius 51.9931
lwrist 2.48801
lhand 0.326474 9.86169
lfingers 7.12502
lthumb 25.903 38.1171
rfemur 3.70378 12.2639 26.9485
rtibia 18.016
rfoot -21.0203 -12.4464
rtoes -18.5874
lfemur -24.9297 -5.11217 -8.98246
ltibia 44.6162
lfoot -20.726 -16.267
ltoes 11.4912
44
root -39.0141 17.2116 -3.02135 -29.3664 77.9763 -33.9201
lowerback 16.4168 -0.948769 -0.0242339
upperback 6.62431 -0.832854 2.31707
thorax -2.11591 -0.304168 2.59235
lowerneck -0.390409 3.40265 1.29997
upperneck -17.017 4.57811 -3.52878
head -4.92634 2.55049 -1.5097
rclavicle -8.15017e-015 2.34566e-014
rhumerus -43.0042 7.588 -80.786
rradius 39.7029
rwrist 2.13617
rhand -8.86382 -15.6891
rfingers 7.12502
rthumb 17.0775 -44.9585
lclavicle -8.15017e-015 2.34566e-014
lhumerus -45.2654 1.52052 81.3832
lradius 52.0878
lwrist 2.56689
lhand 0.342569 9.86267
lfingers 7.12502
lthumb 25.9185 38.1159
rfemur 3.89352 12.2508 26.9354
rtibia 18.0204
rfoot -20.9556 -12.6541
rtoes -19.5577
lfemur -24.9487 -5.21779 -9.04076
ltibia 44.954
lfoot -21.2042 -16.3077
ltoes 11.2184
45
root -38.9606 17.1943 -3.0384 -29.5497 78.0023 -34.1345
lowerback 16.3692 -0.881947 -0.225285
upperback 6.62626 -0.782149 2.21645
thorax -2.08942 -0.281819 2.59042
lowerneck -0.445501 3.33804 1.27711
upperneck -17.0529 4.53127 -3.25103
head -4.93749 2.51344 -1.41812
rclavicle -2.44505e-014 -2.42517e-014
rhumerus -43.3475 7.69995 -81.0114
rradius 39.414
rwrist 2.71537
rhand -8.67553 -15.5746
rfingers 7.12502
rthumb 17.2588 -44.8282
lclavicle -2.44505e-014 -2.42517e-014
lhumerus -45.3194 1.50917 81.2357
lradius 52.1871
lwrist 2.64158
lhand 0.346981 9.85511
lfingers 7.12502
lthumb 25.9227 38.1077
rfemur 4.0647 12.2312 26.9131
rtibia 18.0758
rfoot -20.9065 -12.8653
rtoes -20.5446
lfemur -24.9571 -5.33037 -9.1072
ltibia 45.281
lfoot -21.6636 -16.3575
ltoes 11.08
46
root -38.9064 17.1771 -3.05525 -29.6611 78.0285 -34.279
lowerback 16.3136 -0.810745 -0.445099
upperback 6.62674 -0.728659 2.11046
thorax -2.06023 -0.258427 2.59298
lowerneck -0.501706 3.27461 1.25221
upperneck -17.0776 4.48809 -2.95845
head -4.94518 2.47732 -1.32151
rclavicle -2.28602e-014 -5.56597e-015
rhumerus -43.6877 7.82851 -81.2524
rradius 39.1462
rwrist 3.25455
rhand -8.42926 -15.4588
rfingers 7.12502
rthumb 17.4958 -44.6915
lclavicle -2.28602e-014 -5.56597e-015
lhumerus -45.3668 1.48285 81.0903
lradius 52.2844
lwrist 2.708
lhand 0.344157 9.83826
lfingers 7.12502
lthumb 25.92 38.0912
rfemur 4.19919 12.2033 26.8721
rtibia 18.1985
rfoot -20.8765 -13.0616
rtoes -21.5476
lfemur -24.9533 -5.44362 -9.18708
ltibia 45.5876
lfoot -22.1349 -16.4039
ltoes 10.9479
